<svg width="1200" height="630" viewBox="0 0 1200 630" fill="none" xmlns="http://www.w3.org/2000/svg">
  <rect width="1200" height="630" fill="#F6FAFF"/>
  <rect x="42" y="42" width="1116" height="546" rx="28" fill="white" stroke="#D7E4F2" stroke-width="2"/>
  <rect x="78" y="88" width="276" height="158" rx="22" fill="#F3F8FF" stroke="#D7E4F2"/>
  <rect x="423" y="88" width="354" height="158" rx="22" fill="#FFFFFF" stroke="#D7E4F2"/>
  <rect x="846" y="88" width="276" height="158" rx="22" fill="#F3F8FF" stroke="#D7E4F2"/>
  <rect x="150" y="363" width="270" height="162" rx="22" fill="#FBFDFF" stroke="#D7E4F2"/>
  <rect x="468" y="332" width="264" height="224" rx="22" fill="#163957"/>
  <rect x="780" y="363" width="270" height="162" rx="22" fill="#FBFDFF" stroke="#D7E4F2"/>
  <text x="78" y="68" fill="#5E7388" font-family="Pretendard, Arial, sans-serif" font-size="26" font-weight="700">CoGen</text>
  <text x="78" y="132" fill="#173957" font-family="Pretendard, Arial, sans-serif" font-size="32" font-weight="700">Speaker</text>
  <text x="78" y="171" fill="#4F667C" font-family="Pretendard, Arial, sans-serif" font-size="22">Generate a description</text>
  <text x="78" y="204" fill="#4F667C" font-family="Pretendard, Arial, sans-serif" font-size="22">for the target image</text>
  <text x="423" y="132" fill="#173957" font-family="Pretendard, Arial, sans-serif" font-size="32" font-weight="700">Reference Game</text>
  <text x="423" y="171" fill="#4F667C" font-family="Pretendard, Arial, sans-serif" font-size="22">10-image tangram context</text>
  <text x="423" y="204" fill="#4F667C" font-family="Pretendard, Arial, sans-serif" font-size="22">binary success / failure feedback</text>
  <text x="846" y="132" fill="#173957" font-family="Pretendard, Arial, sans-serif" font-size="32" font-weight="700">Listener</text>
  <text x="846" y="171" fill="#4F667C" font-family="Pretendard, Arial, sans-serif" font-size="22">Interpret the utterance</text>
  <text x="846" y="204" fill="#4F667C" font-family="Pretendard, Arial, sans-serif" font-size="22">and select the target</text>
  <text x="150" y="407" fill="#173957" font-family="Pretendard, Arial, sans-serif" font-size="28" font-weight="700">Training-Time Coupling</text>
  <text x="150" y="447" fill="#4F667C" font-family="Pretendard, Arial, sans-serif" font-size="22">Data sharing across roles</text>
  <text x="150" y="480" fill="#4F667C" font-family="Pretendard, Arial, sans-serif" font-size="22">using positive interactions</text>
  <text x="510" y="396" fill="white" font-family="Pretendard, Arial, sans-serif" font-size="28" font-weight="700">Coupled</text>
  <text x="491" y="438" fill="white" font-family="Pretendard, Arial, sans-serif" font-size="42" font-weight="800">CoGen</text>
  <text x="505" y="478" fill="#CFDCEF" font-family="Pretendard, Arial, sans-serif" font-size="22">generation + comprehension</text>
  <text x="793" y="407" fill="#173957" font-family="Pretendard, Arial, sans-serif" font-size="28" font-weight="700">Inference-Time Coupling</text>
  <text x="807" y="447" fill="#4F667C" font-family="Pretendard, Arial, sans-serif" font-size="22">Joint inference with</text>
  <text x="804" y="480" fill="#4F667C" font-family="Pretendard, Arial, sans-serif" font-size="22">speaker/listener distributions</text>
  <path d="M355 167H408" stroke="#234F79" stroke-width="4" stroke-linecap="round"/>
  <path d="M396 152L423 167L396 182" stroke="#234F79" stroke-width="4" stroke-linecap="round" stroke-linejoin="round"/>
  <path d="M778 167H831" stroke="#234F79" stroke-width="4" stroke-linecap="round"/>
  <path d="M819 152L846 167L819 182" stroke="#234F79" stroke-width="4" stroke-linecap="round" stroke-linejoin="round"/>
  <path d="M285 323L436 360" stroke="#91ACC8" stroke-width="4" stroke-linecap="round"/>
  <path d="M915 323L764 360" stroke="#91ACC8" stroke-width="4" stroke-linecap="round"/>
  <path d="M422 443H459" stroke="#91ACC8" stroke-width="4" stroke-linecap="round"/>
  <path d="M741 443H778" stroke="#91ACC8" stroke-width="4" stroke-linecap="round"/>
  <text x="79" y="287" fill="#173957" font-family="Pretendard, Arial, sans-serif" font-size="52" font-weight="800">CoGen</text>
  <text x="79" y="328" fill="#4F667C" font-family="Pretendard, Arial, sans-serif" font-size="24">Learning from Feedback with Coupled</text>
  <text x="79" y="360" fill="#4F667C" font-family="Pretendard, Arial, sans-serif" font-size="24">Comprehension and Generation</text>
</svg>
